<svg width="479" height="119" viewBox="0 0 479 119" fill="none" xmlns="http://www.w3.org/2000/svg">
<path d="M149.354 79.0433C153.529 79.0433 155.617 75.6724 155.617 68.9304C155.617 65.5212 155.138 62.9355 154.18 61.1734C153.261 59.4113 151.691 58.5302 149.469 58.5302C147.285 58.5302 145.676 59.373 144.642 61.0585C143.608 62.7439 143.091 65.0423 143.091 67.9536C143.091 73.3548 144.087 76.745 146.079 78.124C146.96 78.7369 148.051 79.0433 149.354 79.0433ZM136.138 68.7581C136.138 65.9234 136.559 63.4718 137.402 61.4032C138.245 59.2964 139.375 57.6875 140.792 56.5766C143.512 54.5081 146.519 53.4738 149.814 53.4738C152.112 53.4738 154.046 53.8568 155.617 54.623C157.226 55.3508 158.471 56.2127 159.352 57.2087C160.271 58.1663 161.037 59.5837 161.65 61.4607C162.301 63.2994 162.627 65.4829 162.627 68.0111C162.627 73.2974 161.344 77.3004 158.777 80.0202C156.211 82.7399 152.916 84.0998 148.894 84.0998C144.91 84.0998 141.788 82.8165 139.528 80.25C137.268 77.6452 136.138 73.8145 136.138 68.7581ZM166.15 58.9325V54.3357H175.861V58.0706C176.857 56.6532 178.179 55.5423 179.826 54.7379C181.473 53.8952 183.254 53.4738 185.17 53.4738C188.081 53.4738 190.322 54.3165 191.892 56.002C193.501 57.6492 194.306 60.1391 194.306 63.4718V78.4687L197.581 78.6411V83.2379H183.905V78.871L185.802 78.6986C186.376 78.622 186.798 78.4687 187.066 78.2389C187.334 77.9708 187.468 77.4919 187.468 76.8024V64.9657C187.468 62.8589 187.142 61.3075 186.491 60.3115C185.84 59.2772 184.595 58.7601 182.756 58.7601C180.956 58.7601 179.519 59.3347 178.447 60.4839C177.374 61.6331 176.838 62.9929 176.838 64.5635V78.4687L180.113 78.6411V83.2379H166.438V78.871L168.334 78.6986C168.909 78.622 169.33 78.4687 169.598 78.2389C169.866 77.9708 170 77.4919 170 76.8024V60.8861C170 59.7369 169.521 59.1431 168.564 59.1048L166.15 58.9325ZM215.371 53.4738C218.244 53.4738 220.523 54.1825 222.209 55.5998C223.894 56.9788 224.737 58.9325 224.737 61.4607C224.737 63.1462 224.373 64.6401 223.645 65.9425C222.917 67.2066 222.017 68.2026 220.945 68.9304C219.872 69.6583 218.57 70.252 217.037 70.7117C214.471 71.4778 211.579 71.8609 208.361 71.8609C208.476 73.8911 209.108 75.5383 210.257 76.8024C211.406 78.0282 213.168 78.6411 215.543 78.6411C217.918 78.6411 220.293 77.7984 222.668 76.1129L224.852 80.7671C224.086 81.4566 222.783 82.1653 220.945 82.8931C219.144 83.621 217.076 83.9849 214.739 83.9849C210.066 83.9849 206.637 82.7016 204.454 80.1351C202.27 77.5302 201.178 73.9677 201.178 69.4476C201.178 64.9274 202.423 61.1351 204.913 58.0706C207.403 55.006 210.889 53.4738 215.371 53.4738ZM212.728 66.6321C214.145 66.3639 215.448 65.8085 216.635 64.9657C217.823 64.0847 218.416 63.0504 218.416 61.8629C218.416 59.5262 217.267 58.3579 214.969 58.3579C212.824 58.3579 211.176 59.2198 210.027 60.9435C208.878 62.629 208.246 64.6593 208.131 67.0343C209.817 66.996 211.349 66.8619 212.728 66.6321ZM232.401 76.8024V59.1623H227.459V54.3357H232.401V52.1522C232.401 48.3982 233.262 45.6976 234.986 44.0504C236.595 42.4798 238.951 41.6945 242.054 41.6945C245.157 41.6945 247.915 42.3649 250.328 43.7056L248.662 48.3024C246.823 47.3448 245.099 46.8659 243.49 46.8659C241.881 46.8659 240.771 47.2681 240.158 48.0726C239.545 48.8387 239.238 50.0262 239.238 51.6351V54.3357H247.742V59.1623H239.238V78.4113L244.065 78.6411V83.2379H228.838V78.871L230.734 78.6986C231.309 78.622 231.73 78.4687 231.998 78.2389C232.267 77.9708 232.401 77.4919 232.401 76.8024ZM260.333 42.2691V78.4687L263.608 78.6411V83.2379H249.933V78.871L251.829 78.6986C252.94 78.5837 253.495 77.9708 253.495 76.8599V48.5322C253.495 47.6895 253.016 47.2298 252.059 47.1532L250.047 47.0383V42.2691H260.333ZM292.961 55.4849V76.8599C292.961 77.4728 293.057 77.8941 293.249 78.124C293.478 78.3538 293.861 78.4879 294.398 78.5262L296.236 78.6411V83.2379H287.1V79.9052L286.928 79.8478C285.013 82.6058 282.389 83.9849 279.056 83.9849C275.149 83.9849 272.257 82.7399 270.38 80.25C268.503 77.7601 267.564 74.3508 267.564 70.0222C267.564 64.8125 268.828 60.752 271.356 57.8407C273.885 54.9294 277.677 53.4738 282.733 53.4738C285.99 53.4738 289.399 54.1441 292.961 55.4849ZM286.296 74.1018V59.2198C285.223 58.7218 283.749 58.4728 281.872 58.4728C279.305 58.4728 277.447 59.507 276.298 61.5756C275.149 63.6441 274.574 66.3831 274.574 69.7923C274.574 75.998 276.566 79.1008 280.55 79.1008C282.235 79.1008 283.615 78.6028 284.687 77.6069C285.76 76.5726 286.296 75.4042 286.296 74.1018ZM314.818 58.7026C313.899 58.3579 312.788 58.1855 311.485 58.1855C310.183 58.1855 309.129 58.4919 308.325 59.1048C307.559 59.6794 307.176 60.4073 307.176 61.2883C307.176 62.131 307.31 62.8014 307.578 63.2994C307.884 63.7591 308.344 64.1613 308.957 64.506C309.915 65.004 311.064 65.4446 312.405 65.8276C313.745 66.1724 314.741 66.4597 315.393 66.6895C316.044 66.881 316.848 67.2258 317.806 67.7238C318.802 68.2218 319.549 68.7581 320.047 69.3327C321.388 70.75 322.058 72.5696 322.058 74.7913C322.058 77.6643 321.004 79.9244 318.898 81.5716C316.829 83.1804 314.186 83.9849 310.968 83.9849C306.295 83.9849 302.771 83.3911 300.396 82.2036V74.2167L305.567 73.8145V76.5726C305.567 78.2581 307.176 79.1008 310.394 79.1008C313.611 79.1008 315.22 77.9325 315.22 75.5958C315.22 74.753 314.933 74.0635 314.358 73.5272C313.822 72.9909 313.286 72.627 312.749 72.4355C312.213 72.2439 311.562 72.0524 310.796 71.8609C310.068 71.6693 309.34 71.4778 308.612 71.2863C307.923 71.0948 307.157 70.8458 306.314 70.5393C305.509 70.1946 304.609 69.7157 303.613 69.1028C301.66 67.8387 300.683 65.7318 300.683 62.7823C300.683 59.7943 301.736 57.496 303.843 55.8871C305.95 54.2782 308.593 53.4738 311.773 53.4738C314.99 53.4738 318.17 54.2399 321.311 55.7722V62.6673L316.14 63.0696V60.6562C316.14 59.6986 315.699 59.0474 314.818 58.7026ZM329.193 76.8024V48.8195C329.193 48.2066 329.078 47.7853 328.848 47.5554C328.656 47.3256 328.293 47.1915 327.756 47.1532L325.745 47.0383V42.2691H335.973V57.7258C337.965 54.8911 340.761 53.4738 344.362 53.4738C347.273 53.4738 349.514 54.3165 351.085 56.002C352.694 57.6492 353.498 60.1391 353.498 63.4718V78.4687L356.773 78.6411V83.2379H343.098V78.871L344.994 78.6986C345.569 78.622 345.99 78.4687 346.258 78.2389C346.526 77.9708 346.661 77.4919 346.661 76.8024V64.9657C346.661 62.9738 346.335 61.4415 345.684 60.3689C345.071 59.2964 343.845 58.7601 342.006 58.7601C340.206 58.7601 338.75 59.3347 337.639 60.4839C336.567 61.5948 336.03 62.9546 336.03 64.5635V78.4687L339.306 78.6411V83.2379H325.63V78.871L327.526 78.6986C328.101 78.622 328.522 78.4687 328.791 78.2389C329.059 77.9708 329.193 77.4919 329.193 76.8024ZM367.094 68.4708C367.094 71.7268 367.707 74.255 368.932 76.0554C370.158 77.8558 371.92 78.756 374.219 78.756C376.555 78.756 378.854 77.9325 381.114 76.2853L383.585 80.7097C380.865 82.9314 377.456 84.0423 373.357 84.0423C369.258 84.0423 366.021 82.7591 363.646 80.1925C361.309 77.5877 360.141 73.7571 360.141 68.7006C360.141 63.6441 361.482 59.8518 364.163 57.3236C366.883 54.757 369.928 53.4738 373.299 53.4738C376.709 53.4738 379.869 54.2591 382.78 55.8296V63.2994L377.494 63.7016V60.9435C377.494 59.9093 377.111 59.2772 376.345 59.0474C375.617 58.7792 374.851 58.6452 374.046 58.6452C369.411 58.6452 367.094 61.9204 367.094 68.4708ZM412.987 55.4849V76.8599C412.987 77.4728 413.083 77.8941 413.274 78.124C413.504 78.3538 413.887 78.4879 414.423 78.5262L416.262 78.6411V83.2379H407.126V79.9052L406.954 79.8478C405.038 82.6058 402.414 83.9849 399.082 83.9849C395.174 83.9849 392.282 82.7399 390.405 80.25C388.528 77.7601 387.59 74.3508 387.59 70.0222C387.59 64.8125 388.854 60.752 391.382 57.8407C393.91 54.9294 397.703 53.4738 402.759 53.4738C406.015 53.4738 409.424 54.1441 412.987 55.4849ZM406.322 74.1018V59.2198C405.249 58.7218 403.774 58.4728 401.897 58.4728C399.331 58.4728 397.473 59.507 396.324 61.5756C395.174 63.6441 394.6 66.3831 394.6 69.7923C394.6 75.998 396.592 79.1008 400.576 79.1008C402.261 79.1008 403.64 78.6028 404.713 77.6069C405.785 76.5726 406.322 75.4042 406.322 74.1018ZM423.352 76.8024V60.8861C423.352 60.2732 423.237 59.8518 423.007 59.622C422.815 59.3538 422.451 59.2006 421.915 59.1623L419.502 58.9899V54.3357H429.213V58.6452C429.902 57.1512 430.975 55.9254 432.43 54.9677C433.886 53.9718 435.552 53.4738 437.429 53.4738C439.345 53.4738 441.164 53.8952 442.888 54.7379V63.2994L437.544 63.7016V61.0585C437.544 60.2923 437.353 59.8135 436.97 59.622C436.548 59.4304 436.031 59.3347 435.418 59.3347C433.886 59.3347 432.622 59.8901 431.626 61.001C430.668 62.0736 430.189 63.4526 430.189 65.1381V78.4687L435.188 78.6986V83.2379H419.789V78.871L421.685 78.6986C422.26 78.622 422.681 78.4687 422.949 78.2389C423.218 77.9708 423.352 77.4919 423.352 76.8024ZM460.753 53.4738C462.4 53.4738 463.971 53.7036 465.465 54.1633V48.3599C465.465 47.5171 464.967 47.0575 463.971 46.9808L461.5 46.8085V42.2691H472.187V77.2046C472.226 78.0857 472.705 78.5262 473.624 78.5262L475.635 78.6411V83.2379H466.327V79.8478L466.154 79.7903C464.43 82.5867 461.826 83.9849 458.34 83.9849C453.973 83.9849 450.908 82.5292 449.146 79.6179C447.537 76.9748 446.733 73.7379 446.733 69.9073C446.733 64.9274 447.959 60.9435 450.41 57.9556C452.9 54.9677 456.348 53.4738 460.753 53.4738ZM465.465 74.2742V59.3921C464.086 58.7792 462.63 58.4728 461.098 58.4728C458.57 58.4728 456.712 59.4879 455.524 61.5181C454.375 63.5484 453.8 66.1341 453.8 69.2752C453.8 75.7107 455.869 78.9284 460.006 78.9284C461.577 78.9284 462.879 78.4879 463.913 77.6069C464.948 76.6875 465.465 75.5766 465.465 74.2742Z" fill="#007BEC"/>
<g filter="url(#filter0_dd)">
<rect x="49.9677" y="19.3226" width="61.2903" height="91.9355" rx="9.57661" fill="#FBFBFB"/>
</g>
<rect x="55.7137" y="46.1371" width="49.7984" height="7.66129" rx="1.91532" fill="#007BEC" fill-opacity="0.5"/>
<rect x="55.7137" y="57.629" width="49.7984" height="7.66129" rx="1.91532" fill="#007BEC" fill-opacity="0.5"/>
<rect x="55.7137" y="69.121" width="49.7984" height="7.66129" rx="1.91532" fill="#007BEC" fill-opacity="0.5"/>
<rect x="55.7137" y="80.6129" width="49.7984" height="7.66129" rx="1.91532" fill="#007BEC" fill-opacity="0.5"/>
<rect x="55.7137" y="92.1048" width="49.7984" height="7.66129" rx="1.91532" fill="#007BEC" fill-opacity="0.5"/>
<rect x="55.7137" y="32.7298" width="49.7984" height="7.66129" rx="1.91532" fill="#EC008E" fill-opacity="0.5"/>
<g filter="url(#filter1_dd)">
<rect x="4" y="38.9138" width="61.2903" height="91.9355" rx="9.57661" transform="rotate(-34.7256 4 38.9138)" fill="#FBFBFB"/>
</g>
<rect x="23.9974" y="57.6792" width="49.7984" height="7.66129" rx="1.91532" transform="rotate(-34.7256 23.9974 57.6792)" fill="#007BEC" fill-opacity="0.5"/>
<rect x="30.5437" y="67.1243" width="49.7984" height="7.66129" rx="1.91532" transform="rotate(-34.7256 30.5437 67.1243)" fill="#007BEC" fill-opacity="0.5"/>
<rect x="37.0901" y="76.5694" width="49.7984" height="7.66129" rx="1.91532" transform="rotate(-34.7256 37.0901 76.5694)" fill="#007BEC" fill-opacity="0.5"/>
<rect x="43.6364" y="86.0146" width="49.7984" height="7.66129" rx="1.91532" transform="rotate(-34.7256 43.6364 86.0146)" fill="#007BEC" fill-opacity="0.5"/>
<rect x="50.1827" y="95.4597" width="49.7984" height="7.66129" rx="1.91532" transform="rotate(-34.7256 50.1827 95.4597)" fill="#007BEC" fill-opacity="0.5"/>
<rect x="16.3599" y="46.66" width="49.7984" height="7.66129" rx="1.91532" transform="rotate(-34.7256 16.3599 46.66)" fill="#EC008E" fill-opacity="0.5"/>
<defs>
<filter id="filter0_dd" x="42.3065" y="11.6613" width="76.6129" height="107.258" filterUnits="userSpaceOnUse" color-interpolation-filters="sRGB">
<feFlood flood-opacity="0" result="BackgroundImageFix"/>
<feColorMatrix in="SourceAlpha" type="matrix" values="0 0 0 0 0 0 0 0 0 0 0 0 0 0 0 0 0 0 127 0"/>
<feOffset/>
<feGaussianBlur stdDeviation="3.83065"/>
<feColorMatrix type="matrix" values="0 0 0 0 0 0 0 0 0 0 0 0 0 0 0 0 0 0 0.1 0"/>
<feBlend mode="normal" in2="BackgroundImageFix" result="effect1_dropShadow"/>
<feColorMatrix in="SourceAlpha" type="matrix" values="0 0 0 0 0 0 0 0 0 0 0 0 0 0 0 0 0 0 127 0"/>
<feOffset/>
<feGaussianBlur stdDeviation="0.957661"/>
<feColorMatrix type="matrix" values="0 0 0 0 0 0 0 0 0 0 0 0 0 0 0 0 0 0 0.25 0"/>
<feBlend mode="normal" in2="effect1_dropShadow" result="effect2_dropShadow"/>
<feBlend mode="normal" in="SourceGraphic" in2="effect2_dropShadow" result="shape"/>
</filter>
<filter id="filter1_dd" x="0.0874271" y="0.0874424" width="110.57" height="118.3" filterUnits="userSpaceOnUse" color-interpolation-filters="sRGB">
<feFlood flood-opacity="0" result="BackgroundImageFix"/>
<feColorMatrix in="SourceAlpha" type="matrix" values="0 0 0 0 0 0 0 0 0 0 0 0 0 0 0 0 0 0 127 0"/>
<feOffset/>
<feGaussianBlur stdDeviation="3.83065"/>
<feColorMatrix type="matrix" values="0 0 0 0 0 0 0 0 0 0 0 0 0 0 0 0 0 0 0.1 0"/>
<feBlend mode="normal" in2="BackgroundImageFix" result="effect1_dropShadow"/>
<feColorMatrix in="SourceAlpha" type="matrix" values="0 0 0 0 0 0 0 0 0 0 0 0 0 0 0 0 0 0 127 0"/>
<feOffset/>
<feGaussianBlur stdDeviation="0.957661"/>
<feColorMatrix type="matrix" values="0 0 0 0 0 0 0 0 0 0 0 0 0 0 0 0 0 0 0.25 0"/>
<feBlend mode="normal" in2="effect1_dropShadow" result="effect2_dropShadow"/>
<feBlend mode="normal" in="SourceGraphic" in2="effect2_dropShadow" result="shape"/>
</filter>
</defs>
</svg>
