<svg width="119" height="119" viewBox="0 0 119 119" fill="none" xmlns="http://www.w3.org/2000/svg">
<g filter="url(#filter0_dd)">
<rect x="49.9677" y="19.3226" width="61.2903" height="91.9355" rx="9.57661" fill="#FBFBFB"/>
</g>
<rect x="55.7137" y="46.1371" width="49.7984" height="7.66129" rx="1.91532" fill="#007BEC" fill-opacity="0.5"/>
<rect x="55.7137" y="57.629" width="49.7984" height="7.66129" rx="1.91532" fill="#007BEC" fill-opacity="0.5"/>
<rect x="55.7137" y="69.121" width="49.7984" height="7.66129" rx="1.91532" fill="#007BEC" fill-opacity="0.5"/>
<rect x="55.7137" y="80.6129" width="49.7984" height="7.66129" rx="1.91532" fill="#007BEC" fill-opacity="0.5"/>
<rect x="55.7137" y="92.1048" width="49.7984" height="7.66129" rx="1.91532" fill="#007BEC" fill-opacity="0.5"/>
<rect x="55.7137" y="32.7298" width="49.7984" height="7.66129" rx="1.91532" fill="#EC008E" fill-opacity="0.5"/>
<g filter="url(#filter1_dd)">
<rect x="4" y="38.9138" width="61.2903" height="91.9355" rx="9.57661" transform="rotate(-34.7256 4 38.9138)" fill="#FBFBFB"/>
</g>
<rect x="23.9974" y="57.6792" width="49.7984" height="7.66129" rx="1.91532" transform="rotate(-34.7256 23.9974 57.6792)" fill="#007BEC" fill-opacity="0.5"/>
<rect x="30.5437" y="67.1243" width="49.7984" height="7.66129" rx="1.91532" transform="rotate(-34.7256 30.5437 67.1243)" fill="#007BEC" fill-opacity="0.5"/>
<rect x="37.0901" y="76.5694" width="49.7984" height="7.66129" rx="1.91532" transform="rotate(-34.7256 37.0901 76.5694)" fill="#007BEC" fill-opacity="0.5"/>
<rect x="43.6364" y="86.0146" width="49.7984" height="7.66129" rx="1.91532" transform="rotate(-34.7256 43.6364 86.0146)" fill="#007BEC" fill-opacity="0.5"/>
<rect x="50.1827" y="95.4597" width="49.7984" height="7.66129" rx="1.91532" transform="rotate(-34.7256 50.1827 95.4597)" fill="#007BEC" fill-opacity="0.5"/>
<rect x="16.3599" y="46.66" width="49.7984" height="7.66129" rx="1.91532" transform="rotate(-34.7256 16.3599 46.66)" fill="#EC008E" fill-opacity="0.5"/>
<defs>
<filter id="filter0_dd" x="42.3065" y="11.6613" width="76.6129" height="107.258" filterUnits="userSpaceOnUse" color-interpolation-filters="sRGB">
<feFlood flood-opacity="0" result="BackgroundImageFix"/>
<feColorMatrix in="SourceAlpha" type="matrix" values="0 0 0 0 0 0 0 0 0 0 0 0 0 0 0 0 0 0 127 0"/>
<feOffset/>
<feGaussianBlur stdDeviation="3.83065"/>
<feColorMatrix type="matrix" values="0 0 0 0 0 0 0 0 0 0 0 0 0 0 0 0 0 0 0.1 0"/>
<feBlend mode="normal" in2="BackgroundImageFix" result="effect1_dropShadow"/>
<feColorMatrix in="SourceAlpha" type="matrix" values="0 0 0 0 0 0 0 0 0 0 0 0 0 0 0 0 0 0 127 0"/>
<feOffset/>
<feGaussianBlur stdDeviation="0.957661"/>
<feColorMatrix type="matrix" values="0 0 0 0 0 0 0 0 0 0 0 0 0 0 0 0 0 0 0.25 0"/>
<feBlend mode="normal" in2="effect1_dropShadow" result="effect2_dropShadow"/>
<feBlend mode="normal" in="SourceGraphic" in2="effect2_dropShadow" result="shape"/>
</filter>
<filter id="filter1_dd" x="0.0874271" y="0.0874424" width="110.57" height="118.3" filterUnits="userSpaceOnUse" color-interpolation-filters="sRGB">
<feFlood flood-opacity="0" result="BackgroundImageFix"/>
<feColorMatrix in="SourceAlpha" type="matrix" values="0 0 0 0 0 0 0 0 0 0 0 0 0 0 0 0 0 0 127 0"/>
<feOffset/>
<feGaussianBlur stdDeviation="3.83065"/>
<feColorMatrix type="matrix" values="0 0 0 0 0 0 0 0 0 0 0 0 0 0 0 0 0 0 0.1 0"/>
<feBlend mode="normal" in2="BackgroundImageFix" result="effect1_dropShadow"/>
<feColorMatrix in="SourceAlpha" type="matrix" values="0 0 0 0 0 0 0 0 0 0 0 0 0 0 0 0 0 0 127 0"/>
<feOffset/>
<feGaussianBlur stdDeviation="0.957661"/>
<feColorMatrix type="matrix" values="0 0 0 0 0 0 0 0 0 0 0 0 0 0 0 0 0 0 0.25 0"/>
<feBlend mode="normal" in2="effect1_dropShadow" result="effect2_dropShadow"/>
<feBlend mode="normal" in="SourceGraphic" in2="effect2_dropShadow" result="shape"/>
</filter>
</defs>
</svg>
