<svg width="340" height="44" viewBox="0 0 340 44" fill="none" xmlns="http://www.w3.org/2000/svg">
<path d="M13.3538 38.0433C17.5292 38.0433 19.6169 34.6724 19.6169 27.9304C19.6169 24.5212 19.1381 21.9355 18.1804 20.1734C17.2611 18.4113 15.6905 17.5302 13.4687 17.5302C11.2853 17.5302 9.67641 18.373 8.64213 20.0585C7.60786 21.7439 7.09072 24.0423 7.09072 26.9536C7.09072 32.3548 8.08669 35.745 10.0786 37.124C10.9597 37.7369 12.0514 38.0433 13.3538 38.0433ZM0.138098 27.7581C0.138098 24.9234 0.559469 22.4718 1.40221 20.4032C2.24495 18.2964 3.37499 16.6875 4.79233 15.5766C7.51209 13.5081 10.5191 12.4738 13.8135 12.4738C16.1119 12.4738 18.0464 12.8568 19.6169 13.623C21.2258 14.3508 22.4708 15.2127 23.3518 16.2087C24.2712 17.1663 25.0373 18.5837 25.6502 20.4607C26.3014 22.2994 26.627 24.4829 26.627 27.0111C26.627 32.2974 25.3437 36.3004 22.7772 39.0202C20.2107 41.7399 16.9163 43.0998 12.8941 43.0998C8.91028 43.0998 5.7883 41.8165 3.52822 39.25C1.26814 36.6452 0.138098 32.8145 0.138098 27.7581ZM30.1505 17.9325V13.3357H39.8611V17.0706C40.8571 15.6532 42.1787 14.5423 43.8259 13.7379C45.473 12.8952 47.2543 12.4738 49.1696 12.4738C52.0809 12.4738 54.3218 13.3165 55.8924 15.002C57.5013 16.6492 58.3057 19.1391 58.3057 22.4718V37.4687L61.5809 37.6411V42.2379H47.9055V37.871L49.8017 37.6986C50.3763 37.622 50.7976 37.4687 51.0658 37.2389C51.3339 36.9708 51.468 36.4919 51.468 35.8024V23.9657C51.468 21.8589 51.1424 20.3075 50.4912 19.3115C49.84 18.2772 48.595 17.7601 46.7563 17.7601C44.9559 17.7601 43.5194 18.3347 42.4468 19.4839C41.3742 20.6331 40.838 21.9929 40.838 23.5635V37.4687L44.1132 37.6411V42.2379H30.4378V37.871L32.3339 37.6986C32.9085 37.622 33.3299 37.4687 33.598 37.2389C33.8662 36.9708 34.0003 36.4919 34.0003 35.8024V19.8861C34.0003 18.7369 33.5214 18.1431 32.5638 18.1048L30.1505 17.9325ZM79.371 12.4738C82.2439 12.4738 84.5232 13.1825 86.2087 14.5998C87.8942 15.9788 88.7369 17.9325 88.7369 20.4607C88.7369 22.1462 88.373 23.6401 87.6452 24.9425C86.9173 26.2066 86.0171 27.2026 84.9446 27.9304C83.872 28.6583 82.5696 29.252 81.0373 29.7117C78.4708 30.4778 75.5786 30.8609 72.3609 30.8609C72.4758 32.8911 73.1079 34.5383 74.2571 35.8024C75.4062 37.0282 77.1683 37.6411 79.5433 37.6411C81.9183 37.6411 84.2933 36.7984 86.6683 35.1129L88.8518 39.7671C88.0857 40.4566 86.7833 41.1653 84.9446 41.8931C83.1442 42.621 81.0756 42.9849 78.7389 42.9849C74.0655 42.9849 70.6371 41.7016 68.4536 39.1351C66.2702 36.5302 65.1784 32.9677 65.1784 28.4476C65.1784 23.9274 66.4234 20.1351 68.9133 17.0706C71.4032 14.006 74.8891 12.4738 79.371 12.4738ZM76.7278 25.6321C78.1452 25.3639 79.4476 24.8085 80.6351 23.9657C81.8226 23.0847 82.4163 22.0504 82.4163 20.8629C82.4163 18.5262 81.2671 17.3579 78.9687 17.3579C76.8236 17.3579 75.1764 18.2198 74.0272 19.9435C72.878 21.629 72.246 23.6593 72.131 26.0343C73.8165 25.996 75.3488 25.8619 76.7278 25.6321ZM96.4006 35.8024V18.1623H91.459V13.3357H96.4006V11.1522C96.4006 7.39818 97.2625 4.69757 98.9863 3.05039C100.595 1.47983 102.951 0.694547 106.054 0.694547C109.157 0.694547 111.915 1.36491 114.328 2.70564L112.662 7.30241C110.823 6.34475 109.099 5.86592 107.49 5.86592C105.881 5.86592 104.771 6.26814 104.158 7.07257C103.545 7.8387 103.238 9.0262 103.238 10.6351V13.3357H111.742V18.1623H103.238V37.4113L108.065 37.6411V42.2379H92.8381V37.871L94.7342 37.6986C95.3088 37.622 95.7302 37.4687 95.9984 37.2389C96.2665 36.9708 96.4006 36.4919 96.4006 35.8024ZM124.333 1.26914V37.4687L127.608 37.6411V42.2379H113.933V37.871L115.829 37.6986C116.94 37.5837 117.495 36.9708 117.495 35.8599V7.53225C117.495 6.68951 117.016 6.22983 116.059 6.15322L114.047 6.0383V1.26914H124.333ZM156.961 14.4849V35.8599C156.961 36.4728 157.057 36.8941 157.249 37.124C157.478 37.3538 157.861 37.4879 158.398 37.5262L160.236 37.6411V42.2379H151.1V38.9052L150.928 38.8478C149.013 41.6058 146.389 42.9849 143.056 42.9849C139.149 42.9849 136.257 41.7399 134.38 39.25C132.503 36.7601 131.564 33.3508 131.564 29.0222C131.564 23.8125 132.828 19.752 135.356 16.8407C137.885 13.9294 141.677 12.4738 146.733 12.4738C149.99 12.4738 153.399 13.1441 156.961 14.4849ZM150.296 33.1018V18.2198C149.223 17.7218 147.749 17.4728 145.872 17.4728C143.305 17.4728 141.447 18.507 140.298 20.5756C139.149 22.6441 138.574 25.3831 138.574 28.7923C138.574 34.998 140.566 38.1008 144.55 38.1008C146.235 38.1008 147.615 37.6028 148.687 36.6069C149.76 35.5726 150.296 34.4042 150.296 33.1018ZM178.818 17.7026C177.899 17.3579 176.788 17.1855 175.485 17.1855C174.183 17.1855 173.129 17.4919 172.325 18.1048C171.559 18.6794 171.176 19.4073 171.176 20.2883C171.176 21.131 171.31 21.8014 171.578 22.2994C171.884 22.7591 172.344 23.1613 172.957 23.506C173.915 24.004 175.064 24.4446 176.405 24.8276C177.745 25.1724 178.741 25.4597 179.393 25.6895C180.044 25.881 180.848 26.2258 181.806 26.7238C182.802 27.2218 183.549 27.7581 184.047 28.3327C185.388 29.75 186.058 31.5696 186.058 33.7913C186.058 36.6643 185.004 38.9244 182.898 40.5716C180.829 42.1804 178.186 42.9849 174.968 42.9849C170.295 42.9849 166.771 42.3911 164.396 41.2036V33.2167L169.567 32.8145V35.5726C169.567 37.2581 171.176 38.1008 174.394 38.1008C177.611 38.1008 179.22 36.9325 179.22 34.5958C179.22 33.753 178.933 33.0635 178.358 32.5272C177.822 31.9909 177.286 31.627 176.749 31.4355C176.213 31.2439 175.562 31.0524 174.796 30.8609C174.068 30.6693 173.34 30.4778 172.612 30.2863C171.923 30.0948 171.157 29.8458 170.314 29.5393C169.509 29.1946 168.609 28.7157 167.613 28.1028C165.66 26.8387 164.683 24.7318 164.683 21.7823C164.683 18.7943 165.736 16.496 167.843 14.8871C169.95 13.2782 172.593 12.4738 175.773 12.4738C178.99 12.4738 182.17 13.2399 185.311 14.7722V21.6673L180.14 22.0696V19.6562C180.14 18.6986 179.699 18.0474 178.818 17.7026ZM193.193 35.8024V7.81955C193.193 7.20665 193.078 6.78527 192.848 6.55543C192.656 6.3256 192.293 6.19152 191.756 6.15322L189.745 6.0383V1.26914H199.973V16.7258C201.965 13.8911 204.761 12.4738 208.362 12.4738C211.273 12.4738 213.514 13.3165 215.085 15.002C216.694 16.6492 217.498 19.1391 217.498 22.4718V37.4687L220.773 37.6411V42.2379H207.098V37.871L208.994 37.6986C209.569 37.622 209.99 37.4687 210.258 37.2389C210.526 36.9708 210.661 36.4919 210.661 35.8024V23.9657C210.661 21.9738 210.335 20.4415 209.684 19.3689C209.071 18.2964 207.845 17.7601 206.006 17.7601C204.206 17.7601 202.75 18.3347 201.639 19.4839C200.567 20.5948 200.03 21.9546 200.03 23.5635V37.4687L203.306 37.6411V42.2379H189.63V37.871L191.526 37.6986C192.101 37.622 192.522 37.4687 192.791 37.2389C193.059 36.9708 193.193 36.4919 193.193 35.8024ZM231.094 27.4708C231.094 30.7268 231.707 33.255 232.932 35.0554C234.158 36.8558 235.92 37.756 238.219 37.756C240.555 37.756 242.854 36.9325 245.114 35.2853L247.585 39.7097C244.865 41.9314 241.456 43.0423 237.357 43.0423C233.258 43.0423 230.021 41.7591 227.646 39.1925C225.309 36.5877 224.141 32.7571 224.141 27.7006C224.141 22.6441 225.482 18.8518 228.163 16.3236C230.883 13.757 233.928 12.4738 237.299 12.4738C240.709 12.4738 243.869 13.2591 246.78 14.8296V22.2994L241.494 22.7016V19.9435C241.494 18.9093 241.111 18.2772 240.345 18.0474C239.617 17.7792 238.851 17.6452 238.046 17.6452C233.411 17.6452 231.094 20.9204 231.094 27.4708ZM276.987 14.4849V35.8599C276.987 36.4728 277.083 36.8941 277.274 37.124C277.504 37.3538 277.887 37.4879 278.423 37.5262L280.262 37.6411V42.2379H271.126V38.9052L270.954 38.8478C269.038 41.6058 266.414 42.9849 263.082 42.9849C259.174 42.9849 256.282 41.7399 254.405 39.25C252.528 36.7601 251.59 33.3508 251.59 29.0222C251.59 23.8125 252.854 19.752 255.382 16.8407C257.91 13.9294 261.703 12.4738 266.759 12.4738C270.015 12.4738 273.424 13.1441 276.987 14.4849ZM270.322 33.1018V18.2198C269.249 17.7218 267.774 17.4728 265.897 17.4728C263.331 17.4728 261.473 18.507 260.324 20.5756C259.174 22.6441 258.6 25.3831 258.6 28.7923C258.6 34.998 260.592 38.1008 264.576 38.1008C266.261 38.1008 267.64 37.6028 268.713 36.6069C269.785 35.5726 270.322 34.4042 270.322 33.1018ZM287.352 35.8024V19.8861C287.352 19.2732 287.237 18.8518 287.007 18.622C286.815 18.3538 286.451 18.2006 285.915 18.1623L283.502 17.9899V13.3357H293.213V17.6452C293.902 16.1512 294.975 14.9254 296.43 13.9677C297.886 12.9718 299.552 12.4738 301.429 12.4738C303.345 12.4738 305.164 12.8952 306.888 13.7379V22.2994L301.544 22.7016V20.0585C301.544 19.2923 301.353 18.8135 300.97 18.622C300.548 18.4304 300.031 18.3347 299.418 18.3347C297.886 18.3347 296.622 18.8901 295.626 20.001C294.668 21.0736 294.189 22.4526 294.189 24.1381V37.4687L299.188 37.6986V42.2379H283.789V37.871L285.685 37.6986C286.26 37.622 286.681 37.4687 286.949 37.2389C287.218 36.9708 287.352 36.4919 287.352 35.8024ZM324.753 12.4738C326.4 12.4738 327.971 12.7036 329.465 13.1633V7.35987C329.465 6.51713 328.967 6.05745 327.971 5.98084L325.5 5.80846V1.26914H336.187V36.2046C336.226 37.0857 336.705 37.5262 337.624 37.5262L339.635 37.6411V42.2379H330.327V38.8478L330.154 38.7903C328.43 41.5867 325.826 42.9849 322.34 42.9849C317.973 42.9849 314.908 41.5292 313.146 38.6179C311.537 35.9748 310.733 32.7379 310.733 28.9073C310.733 23.9274 311.959 19.9435 314.41 16.9556C316.9 13.9677 320.348 12.4738 324.753 12.4738ZM329.465 33.2742V18.3921C328.086 17.7792 326.63 17.4728 325.098 17.4728C322.57 17.4728 320.712 18.4879 319.524 20.5181C318.375 22.5484 317.8 25.1341 317.8 28.2752C317.8 34.7107 319.869 37.9284 324.006 37.9284C325.577 37.9284 326.879 37.4879 327.913 36.6069C328.948 35.6875 329.465 34.5766 329.465 33.2742Z" fill="#007BEC"/>
</svg>
