<svg width="647" height="127" viewBox="0 0 647 127" fill="none" xmlns="http://www.w3.org/2000/svg">
<path d="M168.04 88.16C173.853 88.16 176.76 83.4667 176.76 74.08C176.76 69.3333 176.093 65.7333 174.76 63.28C173.48 60.8267 171.293 59.6 168.2 59.6C165.16 59.6 162.92 60.7733 161.48 63.12C160.04 65.4667 159.32 68.6667 159.32 72.72C159.32 80.24 160.707 84.96 163.48 86.88C164.707 87.7333 166.227 88.16 168.04 88.16ZM149.64 73.84C149.64 69.8933 150.227 66.48 151.4 63.6C152.573 60.6667 154.147 58.4267 156.12 56.88C159.907 54 164.093 52.56 168.68 52.56C171.88 52.56 174.573 53.0933 176.76 54.16C179 55.1733 180.733 56.3733 181.96 57.76C183.24 59.0933 184.307 61.0667 185.16 63.68C186.067 66.24 186.52 69.28 186.52 72.8C186.52 80.16 184.733 85.7333 181.16 89.52C177.587 93.3067 173 95.2 167.4 95.2C161.853 95.2 157.507 93.4133 154.36 89.84C151.213 86.2133 149.64 80.88 149.64 73.84ZM191.426 60.16V53.76H204.946V58.96C206.332 56.9867 208.172 55.44 210.466 54.32C212.759 53.1467 215.239 52.56 217.906 52.56C221.959 52.56 225.079 53.7333 227.266 56.08C229.506 58.3733 230.626 61.84 230.626 66.48V87.36L235.186 87.6V94H216.146V87.92L218.786 87.68C219.586 87.5733 220.172 87.36 220.546 87.04C220.919 86.6667 221.106 86 221.106 85.04V68.56C221.106 65.6267 220.652 63.4667 219.746 62.08C218.839 60.64 217.106 59.92 214.546 59.92C212.039 59.92 210.039 60.72 208.546 62.32C207.052 63.92 206.306 65.8133 206.306 68V87.36L210.866 87.6V94H191.826V87.92L194.466 87.68C195.266 87.5733 195.852 87.36 196.226 87.04C196.599 86.6667 196.786 86 196.786 85.04V62.88C196.786 61.28 196.119 60.4533 194.786 60.4L191.426 60.16ZM259.954 52.56C263.954 52.56 267.128 53.5467 269.474 55.52C271.821 57.44 272.994 60.16 272.994 63.68C272.994 66.0267 272.488 68.1067 271.474 69.92C270.461 71.68 269.208 73.0667 267.714 74.08C266.221 75.0933 264.408 75.92 262.274 76.56C258.701 77.6267 254.674 78.16 250.194 78.16C250.354 80.9867 251.234 83.28 252.834 85.04C254.434 86.7467 256.888 87.6 260.194 87.6C263.501 87.6 266.808 86.4267 270.114 84.08L273.154 90.56C272.088 91.52 270.274 92.5067 267.714 93.52C265.208 94.5333 262.328 95.04 259.074 95.04C252.568 95.04 247.794 93.2533 244.754 89.68C241.714 86.0533 240.194 81.0933 240.194 74.8C240.194 68.5067 241.928 63.2267 245.394 58.96C248.861 54.6933 253.714 52.56 259.954 52.56ZM256.274 70.88C258.248 70.5067 260.061 69.7333 261.714 68.56C263.368 67.3333 264.194 65.8933 264.194 64.24C264.194 60.9867 262.594 59.36 259.394 59.36C256.408 59.36 254.114 60.56 252.514 62.96C250.914 65.3067 250.034 68.1333 249.874 71.44C252.221 71.3867 254.354 71.2 256.274 70.88ZM283.664 85.04V60.48H276.784V53.76H283.664V50.72C283.664 45.4933 284.864 41.7333 287.264 39.44C289.504 37.2533 292.784 36.16 297.104 36.16C301.424 36.16 305.264 37.0933 308.624 38.96L306.304 45.36C303.744 44.0267 301.344 43.36 299.104 43.36C296.864 43.36 295.318 43.92 294.464 45.04C293.611 46.1067 293.184 47.76 293.184 50V53.76H305.024V60.48H293.184V87.28L299.904 87.6V94H278.704V87.92L281.344 87.68C282.144 87.5733 282.731 87.36 283.104 87.04C283.478 86.6667 283.664 86 283.664 85.04ZM322.554 36.96V87.36L327.114 87.6V94H308.074V87.92L310.714 87.68C312.26 87.52 313.034 86.6667 313.034 85.12V45.68C313.034 44.5067 312.367 43.8667 311.034 43.76L308.234 43.6V36.96H322.554ZM367.982 55.36V85.12C367.982 85.9733 368.115 86.56 368.382 86.88C368.702 87.2 369.235 87.3867 369.982 87.44L372.542 87.6V94H359.822V89.36L359.582 89.28C356.915 93.12 353.262 95.04 348.622 95.04C343.182 95.04 339.155 93.3067 336.542 89.84C333.929 86.3733 332.622 81.6267 332.622 75.6C332.622 68.3467 334.382 62.6933 337.902 58.64C341.422 54.5867 346.702 52.56 353.742 52.56C358.275 52.56 363.022 53.4933 367.982 55.36ZM358.702 81.28V60.56C357.209 59.8667 355.155 59.52 352.542 59.52C348.969 59.52 346.382 60.96 344.782 63.84C343.182 66.72 342.382 70.5333 342.382 75.28C342.382 83.92 345.155 88.24 350.702 88.24C353.049 88.24 354.969 87.5467 356.462 86.16C357.955 84.72 358.702 83.0933 358.702 81.28ZM398.413 59.84C397.133 59.36 395.586 59.12 393.773 59.12C391.959 59.12 390.493 59.5467 389.373 60.4C388.306 61.2 387.773 62.2133 387.773 63.44C387.773 64.6133 387.959 65.5467 388.333 66.24C388.759 66.88 389.399 67.44 390.253 67.92C391.586 68.6133 393.186 69.2267 395.053 69.76C396.919 70.24 398.306 70.64 399.213 70.96C400.119 71.2267 401.239 71.7067 402.573 72.4C403.959 73.0933 404.999 73.84 405.693 74.64C407.559 76.6133 408.493 79.1467 408.493 82.24C408.493 86.24 407.026 89.3867 404.093 91.68C401.213 93.92 397.533 95.04 393.053 95.04C386.546 95.04 381.639 94.2133 378.333 92.56V81.44L385.533 80.88V84.72C385.533 87.0667 387.773 88.24 392.253 88.24C396.733 88.24 398.973 86.6133 398.973 83.36C398.973 82.1867 398.573 81.2267 397.773 80.48C397.026 79.7333 396.279 79.2267 395.533 78.96C394.786 78.6933 393.879 78.4267 392.813 78.16C391.799 77.8933 390.786 77.6267 389.773 77.36C388.813 77.0933 387.746 76.7467 386.572 76.32C385.453 75.84 384.199 75.1733 382.813 74.32C380.093 72.56 378.733 69.6267 378.733 65.52C378.733 61.36 380.199 58.16 383.133 55.92C386.066 53.68 389.746 52.56 394.173 52.56C398.653 52.56 403.079 53.6267 407.453 55.76V65.36L400.253 65.92V62.56C400.253 61.2267 399.639 60.32 398.413 59.84ZM418.426 85.04V46.08C418.426 45.2267 418.266 44.64 417.946 44.32C417.68 44 417.173 43.8133 416.426 43.76L413.626 43.6V36.96H427.866V58.48C430.64 54.5333 434.533 52.56 439.546 52.56C443.6 52.56 446.72 53.7333 448.906 56.08C451.146 58.3733 452.266 61.84 452.266 66.48V87.36L456.826 87.6V94H437.786V87.92L440.426 87.68C441.226 87.5733 441.813 87.36 442.186 87.04C442.56 86.6667 442.746 86 442.746 85.04V68.56C442.746 65.7867 442.293 63.6533 441.386 62.16C440.533 60.6667 438.826 59.92 436.266 59.92C433.76 59.92 431.733 60.72 430.186 62.32C428.693 63.8667 427.946 65.76 427.946 68V87.36L432.506 87.6V94H413.466V87.92L416.106 87.68C416.906 87.5733 417.493 87.36 417.866 87.04C418.24 86.6667 418.426 86 418.426 85.04ZM471.195 73.44C471.195 77.9733 472.048 81.4933 473.755 84C475.462 86.5067 477.915 87.76 481.115 87.76C484.368 87.76 487.568 86.6133 490.715 84.32L494.155 90.48C490.368 93.5733 485.622 95.12 479.915 95.12C474.208 95.12 469.702 93.3333 466.395 89.76C463.142 86.1333 461.515 80.8 461.515 73.76C461.515 66.72 463.382 61.44 467.115 57.92C470.902 54.3467 475.142 52.56 479.835 52.56C484.582 52.56 488.982 53.6533 493.035 55.84V66.24L485.675 66.8V62.96C485.675 61.52 485.142 60.64 484.075 60.32C483.062 59.9467 481.995 59.76 480.875 59.76C474.422 59.76 471.195 64.32 471.195 73.44ZM535.091 55.36V85.12C535.091 85.9733 535.225 86.56 535.491 86.88C535.811 87.2 536.345 87.3867 537.091 87.44L539.651 87.6V94H526.931V89.36L526.691 89.28C524.025 93.12 520.371 95.04 515.731 95.04C510.291 95.04 506.265 93.3067 503.651 89.84C501.038 86.3733 499.731 81.6267 499.731 75.6C499.731 68.3467 501.491 62.6933 505.011 58.64C508.531 54.5867 513.811 52.56 520.851 52.56C525.385 52.56 530.131 53.4933 535.091 55.36ZM525.811 81.28V60.56C524.318 59.8667 522.265 59.52 519.651 59.52C516.078 59.52 513.491 60.96 511.891 63.84C510.291 66.72 509.491 70.5333 509.491 75.28C509.491 83.92 512.265 88.24 517.811 88.24C520.158 88.24 522.078 87.5467 523.571 86.16C525.065 84.72 525.811 83.0933 525.811 81.28ZM549.522 85.04V62.88C549.522 62.0267 549.362 61.44 549.042 61.12C548.775 60.7467 548.269 60.5333 547.522 60.48L544.162 60.24V53.76H557.682V59.76C558.642 57.68 560.135 55.9733 562.162 54.64C564.189 53.2533 566.509 52.56 569.122 52.56C571.789 52.56 574.322 53.1467 576.722 54.32V66.24L569.282 66.8V63.12C569.282 62.0533 569.015 61.3867 568.482 61.12C567.895 60.8533 567.175 60.72 566.322 60.72C564.189 60.72 562.429 61.4933 561.042 63.04C559.709 64.5333 559.042 66.4533 559.042 68.8V87.36L566.002 87.68V94H544.562V87.92L547.202 87.68C548.002 87.5733 548.589 87.36 548.962 87.04C549.335 86.6667 549.522 86 549.522 85.04ZM601.595 52.56C603.888 52.56 606.075 52.88 608.155 53.52V45.44C608.155 44.2667 607.462 43.6267 606.075 43.52L602.635 43.28V36.96H617.515V85.6C617.568 86.8267 618.235 87.44 619.515 87.44L622.315 87.6V94H609.355V89.28L609.115 89.2C606.715 93.0933 603.088 95.04 598.235 95.04C592.155 95.04 587.888 93.0133 585.435 88.96C583.195 85.28 582.075 80.7733 582.075 75.44C582.075 68.5067 583.782 62.96 587.195 58.8C590.662 54.64 595.462 52.56 601.595 52.56ZM608.155 81.52V60.8C606.235 59.9467 604.208 59.52 602.075 59.52C598.555 59.52 595.968 60.9333 594.315 63.76C592.715 66.5867 591.915 70.1867 591.915 74.56C591.915 83.52 594.795 88 600.555 88C602.742 88 604.555 87.3867 605.995 86.16C607.435 84.88 608.155 83.3333 608.155 81.52Z" fill="#007BEC"/>
<g filter="url(#filter0_dd)">
<rect x="53.9677" y="23.3226" width="61.2903" height="91.9355" rx="9.57661" fill="#FBFBFB"/>
</g>
<rect x="59.7137" y="50.1371" width="49.7984" height="7.66129" rx="1.91532" fill="#007BEC" fill-opacity="0.5"/>
<rect x="59.7137" y="61.629" width="49.7984" height="7.66129" rx="1.91532" fill="#007BEC" fill-opacity="0.5"/>
<rect x="59.7137" y="73.121" width="49.7984" height="7.66129" rx="1.91532" fill="#007BEC" fill-opacity="0.5"/>
<rect x="59.7137" y="84.6129" width="49.7984" height="7.66129" rx="1.91532" fill="#007BEC" fill-opacity="0.5"/>
<rect x="59.7137" y="96.1048" width="49.7984" height="7.66129" rx="1.91532" fill="#007BEC" fill-opacity="0.5"/>
<rect x="59.7137" y="36.7298" width="49.7984" height="7.66129" rx="1.91532" fill="#EC008E" fill-opacity="0.5"/>
<g filter="url(#filter1_dd)">
<rect x="8" y="42.9138" width="61.2903" height="91.9355" rx="9.57661" transform="rotate(-34.7256 8 42.9138)" fill="#FBFBFB"/>
</g>
<rect x="27.9974" y="61.6792" width="49.7984" height="7.66129" rx="1.91532" transform="rotate(-34.7256 27.9974 61.6792)" fill="#007BEC" fill-opacity="0.5"/>
<rect x="34.5437" y="71.1243" width="49.7984" height="7.66129" rx="1.91532" transform="rotate(-34.7256 34.5437 71.1243)" fill="#007BEC" fill-opacity="0.5"/>
<rect x="41.0901" y="80.5694" width="49.7984" height="7.66129" rx="1.91532" transform="rotate(-34.7256 41.0901 80.5694)" fill="#007BEC" fill-opacity="0.5"/>
<rect x="47.6364" y="90.0146" width="49.7984" height="7.66129" rx="1.91532" transform="rotate(-34.7256 47.6364 90.0146)" fill="#007BEC" fill-opacity="0.5"/>
<rect x="54.1827" y="99.4596" width="49.7984" height="7.66129" rx="1.91532" transform="rotate(-34.7256 54.1827 99.4596)" fill="#007BEC" fill-opacity="0.5"/>
<rect x="20.3599" y="50.66" width="49.7984" height="7.66129" rx="1.91532" transform="rotate(-34.7256 20.3599 50.66)" fill="#EC008E" fill-opacity="0.5"/>
<defs>
<filter id="filter0_dd" x="46.3065" y="15.6613" width="76.6129" height="107.258" filterUnits="userSpaceOnUse" color-interpolation-filters="sRGB">
<feFlood flood-opacity="0" result="BackgroundImageFix"/>
<feColorMatrix in="SourceAlpha" type="matrix" values="0 0 0 0 0 0 0 0 0 0 0 0 0 0 0 0 0 0 127 0"/>
<feOffset/>
<feGaussianBlur stdDeviation="3.83065"/>
<feColorMatrix type="matrix" values="0 0 0 0 0 0 0 0 0 0 0 0 0 0 0 0 0 0 0.1 0"/>
<feBlend mode="normal" in2="BackgroundImageFix" result="effect1_dropShadow"/>
<feColorMatrix in="SourceAlpha" type="matrix" values="0 0 0 0 0 0 0 0 0 0 0 0 0 0 0 0 0 0 127 0"/>
<feOffset/>
<feGaussianBlur stdDeviation="0.957661"/>
<feColorMatrix type="matrix" values="0 0 0 0 0 0 0 0 0 0 0 0 0 0 0 0 0 0 0.25 0"/>
<feBlend mode="normal" in2="effect1_dropShadow" result="effect2_dropShadow"/>
<feBlend mode="normal" in="SourceGraphic" in2="effect2_dropShadow" result="shape"/>
</filter>
<filter id="filter1_dd" x="0.338709" y="0.338709" width="118.067" height="125.797" filterUnits="userSpaceOnUse" color-interpolation-filters="sRGB">
<feFlood flood-opacity="0" result="BackgroundImageFix"/>
<feColorMatrix in="SourceAlpha" type="matrix" values="0 0 0 0 0 0 0 0 0 0 0 0 0 0 0 0 0 0 127 0"/>
<feOffset/>
<feGaussianBlur stdDeviation="3.83065"/>
<feColorMatrix type="matrix" values="0 0 0 0 0 0 0 0 0 0 0 0 0 0 0 0 0 0 0.1 0"/>
<feBlend mode="normal" in2="BackgroundImageFix" result="effect1_dropShadow"/>
<feColorMatrix in="SourceAlpha" type="matrix" values="0 0 0 0 0 0 0 0 0 0 0 0 0 0 0 0 0 0 127 0"/>
<feOffset/>
<feGaussianBlur stdDeviation="0.957661"/>
<feColorMatrix type="matrix" values="0 0 0 0 0 0 0 0 0 0 0 0 0 0 0 0 0 0 0.25 0"/>
<feBlend mode="normal" in2="effect1_dropShadow" result="effect2_dropShadow"/>
<feBlend mode="normal" in="SourceGraphic" in2="effect2_dropShadow" result="shape"/>
</filter>
</defs>
</svg>
