<svg width="474" height="60" viewBox="0 0 474 60" fill="none" xmlns="http://www.w3.org/2000/svg">
<path d="M19.04 52.16C24.8533 52.16 27.76 47.4667 27.76 38.08C27.76 33.3333 27.0933 29.7333 25.76 27.28C24.48 24.8267 22.2933 23.6 19.2 23.6C16.16 23.6 13.92 24.7733 12.48 27.12C11.04 29.4667 10.32 32.6667 10.32 36.72C10.32 44.24 11.7067 48.96 14.48 50.88C15.7067 51.7333 17.2267 52.16 19.04 52.16ZM0.64 37.84C0.64 33.8933 1.22667 30.48 2.4 27.6C3.57333 24.6667 5.14667 22.4267 7.12 20.88C10.9067 18 15.0933 16.56 19.68 16.56C22.88 16.56 25.5733 17.0933 27.76 18.16C30 19.1733 31.7333 20.3733 32.96 21.76C34.24 23.0933 35.3067 25.0667 36.16 27.68C37.0667 30.24 37.52 33.28 37.52 36.8C37.52 44.16 35.7333 49.7333 32.16 53.52C28.5867 57.3067 24 59.2 18.4 59.2C12.8533 59.2 8.50667 57.4133 5.36 53.84C2.21333 50.2133 0.64 44.88 0.64 37.84ZM42.4256 24.16V17.76H55.9456V22.96C57.3323 20.9867 59.1723 19.44 61.4656 18.32C63.759 17.1467 66.239 16.56 68.9056 16.56C72.959 16.56 76.079 17.7333 78.2656 20.08C80.5056 22.3733 81.6256 25.84 81.6256 30.48V51.36L86.1856 51.6V58H67.1456V51.92L69.7856 51.68C70.5856 51.5733 71.1723 51.36 71.5456 51.04C71.919 50.6667 72.1056 50 72.1056 49.04V32.56C72.1056 29.6267 71.6523 27.4667 70.7456 26.08C69.839 24.64 68.1056 23.92 65.5456 23.92C63.039 23.92 61.039 24.72 59.5456 26.32C58.0523 27.92 57.3056 29.8133 57.3056 32V51.36L61.8656 51.6V58H42.8256V51.92L45.4656 51.68C46.2656 51.5733 46.8523 51.36 47.2256 51.04C47.599 50.6667 47.7856 50 47.7856 49.04V26.88C47.7856 25.28 47.119 24.4533 45.7856 24.4L42.4256 24.16ZM110.954 16.56C114.954 16.56 118.128 17.5467 120.474 19.52C122.821 21.44 123.994 24.16 123.994 27.68C123.994 30.0267 123.488 32.1067 122.474 33.92C121.461 35.68 120.208 37.0667 118.714 38.08C117.221 39.0933 115.408 39.92 113.274 40.56C109.701 41.6267 105.674 42.16 101.194 42.16C101.354 44.9867 102.234 47.28 103.834 49.04C105.434 50.7467 107.888 51.6 111.194 51.6C114.501 51.6 117.808 50.4267 121.114 48.08L124.154 54.56C123.088 55.52 121.274 56.5067 118.714 57.52C116.208 58.5333 113.328 59.04 110.074 59.04C103.568 59.04 98.7944 57.2533 95.7544 53.68C92.7144 50.0533 91.1944 45.0933 91.1944 38.8C91.1944 32.5067 92.9277 27.2267 96.3944 22.96C99.861 18.6933 104.714 16.56 110.954 16.56ZM107.274 34.88C109.248 34.5067 111.061 33.7333 112.714 32.56C114.368 31.3333 115.194 29.8933 115.194 28.24C115.194 24.9867 113.594 23.36 110.394 23.36C107.408 23.36 105.114 24.56 103.514 26.96C101.914 29.3067 101.034 32.1333 100.874 35.44C103.221 35.3867 105.354 35.2 107.274 34.88ZM134.664 49.04V24.48H127.784V17.76H134.664V14.72C134.664 9.49333 135.864 5.73333 138.264 3.44C140.504 1.25333 143.784 0.159996 148.104 0.159996C152.424 0.159996 156.264 1.09333 159.624 2.96L157.304 9.36C154.744 8.02666 152.344 7.36 150.104 7.36C147.864 7.36 146.318 7.92 145.464 9.04C144.611 10.1067 144.184 11.76 144.184 14V17.76H156.024V24.48H144.184V51.28L150.904 51.6V58H129.704V51.92L132.344 51.68C133.144 51.5733 133.731 51.36 134.104 51.04C134.478 50.6667 134.664 50 134.664 49.04ZM173.554 0.959995V51.36L178.114 51.6V58H159.074V51.92L161.714 51.68C163.26 51.52 164.034 50.6667 164.034 49.12V9.68C164.034 8.50666 163.367 7.86666 162.034 7.76L159.234 7.6V0.959995H173.554ZM218.982 19.36V49.12C218.982 49.9733 219.115 50.56 219.382 50.88C219.702 51.2 220.235 51.3867 220.982 51.44L223.542 51.6V58H210.822V53.36L210.582 53.28C207.915 57.12 204.262 59.04 199.622 59.04C194.182 59.04 190.155 57.3067 187.542 53.84C184.929 50.3733 183.622 45.6267 183.622 39.6C183.622 32.3467 185.382 26.6933 188.902 22.64C192.422 18.5867 197.702 16.56 204.742 16.56C209.275 16.56 214.022 17.4933 218.982 19.36ZM209.702 45.28V24.56C208.209 23.8667 206.155 23.52 203.542 23.52C199.969 23.52 197.382 24.96 195.782 27.84C194.182 30.72 193.382 34.5333 193.382 39.28C193.382 47.92 196.155 52.24 201.702 52.24C204.049 52.24 205.969 51.5467 207.462 50.16C208.955 48.72 209.702 47.0933 209.702 45.28ZM249.413 23.84C248.133 23.36 246.586 23.12 244.773 23.12C242.959 23.12 241.493 23.5467 240.373 24.4C239.306 25.2 238.773 26.2133 238.773 27.44C238.773 28.6133 238.959 29.5467 239.333 30.24C239.759 30.88 240.399 31.44 241.253 31.92C242.586 32.6133 244.186 33.2267 246.053 33.76C247.919 34.24 249.306 34.64 250.213 34.96C251.119 35.2267 252.239 35.7067 253.573 36.4C254.959 37.0933 255.999 37.84 256.693 38.64C258.559 40.6133 259.493 43.1467 259.493 46.24C259.493 50.24 258.026 53.3867 255.093 55.68C252.213 57.92 248.533 59.04 244.053 59.04C237.546 59.04 232.639 58.2133 229.333 56.56V45.44L236.533 44.88V48.72C236.533 51.0667 238.773 52.24 243.253 52.24C247.733 52.24 249.973 50.6133 249.973 47.36C249.973 46.1867 249.573 45.2267 248.773 44.48C248.026 43.7333 247.279 43.2267 246.533 42.96C245.786 42.6933 244.879 42.4267 243.813 42.16C242.799 41.8933 241.786 41.6267 240.773 41.36C239.813 41.0933 238.746 40.7467 237.572 40.32C236.453 39.84 235.199 39.1733 233.813 38.32C231.093 36.56 229.733 33.6267 229.733 29.52C229.733 25.36 231.199 22.16 234.133 19.92C237.066 17.68 240.746 16.56 245.173 16.56C249.653 16.56 254.079 17.6267 258.453 19.76V29.36L251.253 29.92V26.56C251.253 25.2267 250.639 24.32 249.413 23.84ZM269.426 49.04V10.08C269.426 9.22667 269.266 8.64 268.946 8.32C268.68 8 268.173 7.81333 267.426 7.76L264.626 7.6V0.959995H278.866V22.48C281.64 18.5333 285.533 16.56 290.546 16.56C294.6 16.56 297.72 17.7333 299.906 20.08C302.146 22.3733 303.266 25.84 303.266 30.48V51.36L307.826 51.6V58H288.786V51.92L291.426 51.68C292.226 51.5733 292.813 51.36 293.186 51.04C293.56 50.6667 293.746 50 293.746 49.04V32.56C293.746 29.7867 293.293 27.6533 292.386 26.16C291.533 24.6667 289.826 23.92 287.266 23.92C284.76 23.92 282.733 24.72 281.186 26.32C279.693 27.8667 278.946 29.76 278.946 32V51.36L283.506 51.6V58H264.466V51.92L267.106 51.68C267.906 51.5733 268.493 51.36 268.866 51.04C269.24 50.6667 269.426 50 269.426 49.04ZM322.195 37.44C322.195 41.9733 323.048 45.4933 324.755 48C326.462 50.5067 328.915 51.76 332.115 51.76C335.368 51.76 338.568 50.6133 341.715 48.32L345.155 54.48C341.368 57.5733 336.622 59.12 330.915 59.12C325.208 59.12 320.702 57.3333 317.395 53.76C314.142 50.1333 312.515 44.8 312.515 37.76C312.515 30.72 314.382 25.44 318.115 21.92C321.902 18.3467 326.142 16.56 330.835 16.56C335.582 16.56 339.982 17.6533 344.035 19.84V30.24L336.675 30.8V26.96C336.675 25.52 336.142 24.64 335.075 24.32C334.062 23.9467 332.995 23.76 331.875 23.76C325.422 23.76 322.195 28.32 322.195 37.44ZM386.091 19.36V49.12C386.091 49.9733 386.225 50.56 386.491 50.88C386.811 51.2 387.345 51.3867 388.091 51.44L390.651 51.6V58H377.931V53.36L377.691 53.28C375.025 57.12 371.371 59.04 366.731 59.04C361.291 59.04 357.265 57.3067 354.651 53.84C352.038 50.3733 350.731 45.6267 350.731 39.6C350.731 32.3467 352.491 26.6933 356.011 22.64C359.531 18.5867 364.811 16.56 371.851 16.56C376.385 16.56 381.131 17.4933 386.091 19.36ZM376.811 45.28V24.56C375.318 23.8667 373.265 23.52 370.651 23.52C367.078 23.52 364.491 24.96 362.891 27.84C361.291 30.72 360.491 34.5333 360.491 39.28C360.491 47.92 363.265 52.24 368.811 52.24C371.158 52.24 373.078 51.5467 374.571 50.16C376.065 48.72 376.811 47.0933 376.811 45.28ZM400.522 49.04V26.88C400.522 26.0267 400.362 25.44 400.042 25.12C399.775 24.7467 399.269 24.5333 398.522 24.48L395.162 24.24V17.76H408.682V23.76C409.642 21.68 411.135 19.9733 413.162 18.64C415.189 17.2533 417.509 16.56 420.122 16.56C422.789 16.56 425.322 17.1467 427.722 18.32V30.24L420.282 30.8V27.12C420.282 26.0533 420.015 25.3867 419.482 25.12C418.895 24.8533 418.175 24.72 417.322 24.72C415.189 24.72 413.429 25.4933 412.042 27.04C410.709 28.5333 410.042 30.4533 410.042 32.8V51.36L417.002 51.68V58H395.562V51.92L398.202 51.68C399.002 51.5733 399.589 51.36 399.962 51.04C400.335 50.6667 400.522 50 400.522 49.04ZM452.595 16.56C454.888 16.56 457.075 16.88 459.155 17.52V9.44C459.155 8.26666 458.462 7.62667 457.075 7.52L453.635 7.28V0.959995H468.515V49.6C468.568 50.8267 469.235 51.44 470.515 51.44L473.315 51.6V58H460.355V53.28L460.115 53.2C457.715 57.0933 454.088 59.04 449.235 59.04C443.155 59.04 438.888 57.0133 436.435 52.96C434.195 49.28 433.075 44.7733 433.075 39.44C433.075 32.5067 434.782 26.96 438.195 22.8C441.662 18.64 446.462 16.56 452.595 16.56ZM459.155 45.52V24.8C457.235 23.9467 455.208 23.52 453.075 23.52C449.555 23.52 446.968 24.9333 445.315 27.76C443.715 30.5867 442.915 34.1867 442.915 38.56C442.915 47.52 445.795 52 451.555 52C453.742 52 455.555 51.3867 456.995 50.16C458.435 48.88 459.155 47.3333 459.155 45.52Z" fill="#007BEC"/>
</svg>
